<svg width="25" height="25" viewBox="0 0 25 25" fill="none" xmlns="http://www.w3.org/2000/svg">
<path fill-rule="evenodd" clip-rule="evenodd" d="M16.7273 3.45117H8.72729C5.96587 3.45117 3.72729 5.68975 3.72729 8.45117V16.4512C3.72729 19.2126 5.96587 21.4512 8.72729 21.4512H16.7273C19.4887 21.4512 21.7273 19.2126 21.7273 16.4512V8.45117C21.7273 5.68975 19.4887 3.45117 16.7273 3.45117ZM19.9773 16.4512C19.9718 18.2438 18.5199 19.6957 16.7273 19.7012H8.72729C6.93464 19.6957 5.48278 18.2438 5.47729 16.4512V8.45117C5.48278 6.65852 6.93464 5.20666 8.72729 5.20117H16.7273C18.5199 5.20666 19.9718 6.65852 19.9773 8.45117V16.4512ZM17.4773 8.70117C18.0296 8.70117 18.4773 8.25345 18.4773 7.70117C18.4773 7.14889 18.0296 6.70117 17.4773 6.70117C16.925 6.70117 16.4773 7.14889 16.4773 7.70117C16.4773 8.25345 16.925 8.70117 17.4773 8.70117ZM12.7273 7.95117C10.242 7.95117 8.22729 9.96589 8.22729 12.4512C8.22729 14.9365 10.242 16.9512 12.7273 16.9512C15.2126 16.9512 17.2273 14.9365 17.2273 12.4512C17.23 11.2569 16.7567 10.1107 15.9122 9.26625C15.0677 8.42176 13.9216 7.94851 12.7273 7.95117ZM9.97729 12.4512C9.97729 13.97 11.2085 15.2012 12.7273 15.2012C14.2461 15.2012 15.4773 13.97 15.4773 12.4512C15.4773 10.9324 14.2461 9.70117 12.7273 9.70117C11.2085 9.70117 9.97729 10.9324 9.97729 12.4512Z" fill="#FBF8F3"/>
</svg>
