<svg width="25" height="25" viewBox="0 0 25 25" fill="none" xmlns="http://www.w3.org/2000/svg">
<path d="M17.3273 6.02898C16.6439 5.24851 16.2672 4.24638 16.2673 3.20898H13.1773V15.609C13.154 16.2802 12.8708 16.9161 12.3876 17.3825C11.9044 17.8489 11.2589 18.1094 10.5873 18.109C9.16733 18.109 7.98733 16.949 7.98733 15.509C7.98733 13.789 9.64733 12.499 11.3573 13.029V9.86898C7.90733 9.40898 4.88733 12.089 4.88733 15.509C4.88733 18.839 7.64733 21.209 10.5773 21.209C13.7173 21.209 16.2673 18.659 16.2673 15.509V9.21898C17.5203 10.1188 19.0247 10.6016 20.5673 10.599V7.50898C20.5673 7.50898 18.6873 7.59898 17.3273 6.02898Z" fill="#FBF8F3"/>
</svg>
