<svg width="25" height="25" viewBox="0 0 25 25" fill="none" xmlns="http://www.w3.org/2000/svg">
<path d="M22.3203 7.41199C22.2064 6.98939 21.9838 6.604 21.6746 6.29416C21.3655 5.98432 20.9806 5.76085 20.5583 5.64599C18.9923 5.21599 12.7273 5.20899 12.7273 5.20899C12.7273 5.20899 6.46326 5.20199 4.89626 5.61299C4.47418 5.73314 4.09008 5.95977 3.78082 6.27113C3.47157 6.58248 3.24754 6.96811 3.13026 7.39099C2.71726 8.95699 2.71326 12.205 2.71326 12.205C2.71326 12.205 2.70926 15.469 3.11926 17.019C3.34926 17.876 4.02426 18.553 4.88226 18.784C6.46426 19.214 12.7123 19.221 12.7123 19.221C12.7123 19.221 18.9773 19.228 20.5433 18.818C20.9658 18.7033 21.351 18.4804 21.6609 18.1712C21.9708 17.862 22.1946 17.4772 22.3103 17.055C22.7243 15.49 22.7273 12.243 22.7273 12.243C22.7273 12.243 22.7473 8.97799 22.3203 7.41199ZM10.7233 15.214L10.7283 9.21399L15.9353 12.219L10.7233 15.214Z" fill="#FBF8F3"/>
</svg>
